{
	"asset":{
		"generator":"Khronos glTF Blender I/O v4.4.56",
		"version":"2.0"
	},
	"scene":0,
	"scenes":[
		{
			"name":"Scene",
			"nodes":[
				0,
				1,
				2,
				3
			]
		}
	],
	"nodes":[
		{
			"mesh":0,
			"name":"\u4f53"
		},
		{
			"mesh":1,
			"name":"\u80f8\u3073\u308c",
			"rotation":[
				0.032427988946437836,
				-0.2112012505531311,
				0.14825719594955444,
				0.9655891060829163
			],
			"translation":[
				0.791560709476471,
				0.2019413411617279,
				0.16546189785003662
			]
		},
		{
			"mesh":2,
			"name":"\u5c3e\u3073\u308c",
			"rotation":[
				0.10875599831342697,
				0,
				0,
				0.9940685033798218
			],
			"translation":[
				0.015006632544100285,
				0.2970617711544037,
				-0.9374883770942688
			]
		},
		{
			"mesh":3,
			"name":"\u76ee",
			"rotation":[
				0.410695880651474,
				0.08991338312625885,
				-0.18211789429187775,
				0.8888630867004395
			],
			"translation":[
				0.334676057100296,
				0.47699373960494995,
				0.5777468681335449
			]
		}
	],
	"materials":[
		{
			"doubleSided":true,
			"name":"grid",
			"pbrMetallicRoughness":{
				"baseColorTexture":{
					"index":0
				},
				"metallicFactor":0,
				"roughnessFactor":0.5
			}
		}
	],
	"meshes":[
		{
			"name":"Cube",
			"primitives":[
				{
					"attributes":{
						"POSITION":0,
						"NORMAL":1,
						"TEXCOORD_0":2
					},
					"indices":3,
					"material":0
				}
			]
		},
		{
			"name":"\u7acb\u65b9\u4f53",
			"primitives":[
				{
					"attributes":{
						"POSITION":4,
						"NORMAL":5,
						"TEXCOORD_0":6
					},
					"indices":7,
					"material":0
				}
			]
		},
		{
			"name":"\u7acb\u65b9\u4f53.001",
			"primitives":[
				{
					"attributes":{
						"POSITION":8,
						"NORMAL":9,
						"TEXCOORD_0":10
					},
					"indices":11,
					"material":0
				}
			]
		},
		{
			"name":"\u7403",
			"primitives":[
				{
					"attributes":{
						"POSITION":12,
						"NORMAL":13,
						"TEXCOORD_0":14
					},
					"indices":15,
					"material":0
				}
			]
		}
	],
	"textures":[
		{
			"sampler":0,
			"source":0
		}
	],
	"images":[
		{
			"mimeType":"image/png",
			"name":"fugu",
			"uri":"fugu.png"
		}
	],
	"accessors":[
		{
			"bufferView":0,
			"componentType":5126,
			"count":2224,
			"max":[
				0.8015922904014587,
				0.8015923500061035,
				0.9950158596038818
			],
			"min":[
				-0.8015922904014587,
				-0.8015922904014587,
				-0.8015922904014587
			],
			"type":"VEC3"
		},
		{
			"bufferView":1,
			"componentType":5126,
			"count":2224,
			"type":"VEC3"
		},
		{
			"bufferView":2,
			"componentType":5126,
			"count":2224,
			"type":"VEC2"
		},
		{
			"bufferView":3,
			"componentType":5123,
			"count":12288,
			"type":"SCALAR"
		},
		{
			"bufferView":4,
			"componentType":5126,
			"count":228,
			"max":[
				0.07871481776237488,
				0.6850197911262512,
				0.7974092960357666
			],
			"min":[
				-1.6570250988006592,
				-0.20422101020812988,
				-0.36448249220848083
			],
			"type":"VEC3"
		},
		{
			"bufferView":5,
			"componentType":5126,
			"count":228,
			"type":"VEC3"
		},
		{
			"bufferView":6,
			"componentType":5126,
			"count":228,
			"type":"VEC2"
		},
		{
			"bufferView":7,
			"componentType":5123,
			"count":1152,
			"type":"SCALAR"
		},
		{
			"bufferView":8,
			"componentType":5126,
			"count":186,
			"max":[
				0.07257231324911118,
				0.22461940348148346,
				0.298809677362442
			],
			"min":[
				-0.07328279316425323,
				-0.22461940348148346,
				-0.36877840757369995
			],
			"type":"VEC3"
		},
		{
			"bufferView":9,
			"componentType":5126,
			"count":186,
			"type":"VEC3"
		},
		{
			"bufferView":10,
			"componentType":5126,
			"count":186,
			"type":"VEC2"
		},
		{
			"bufferView":11,
			"componentType":5123,
			"count":960,
			"type":"SCALAR"
		},
		{
			"bufferView":12,
			"componentType":5126,
			"count":1028,
			"max":[
				0.17551277577877045,
				0.03033478930592537,
				0.17551271617412567
			],
			"min":[
				-0.7361223101615906,
				-0.3957834839820862,
				-0.18233762681484222
			],
			"type":"VEC3"
		},
		{
			"bufferView":13,
			"componentType":5126,
			"count":1028,
			"type":"VEC3"
		},
		{
			"bufferView":14,
			"componentType":5126,
			"count":1028,
			"type":"VEC2"
		},
		{
			"bufferView":15,
			"componentType":5123,
			"count":5760,
			"type":"SCALAR"
		}
	],
	"bufferViews":[
		{
			"buffer":0,
			"byteLength":26688,
			"byteOffset":0,
			"target":34962
		},
		{
			"buffer":0,
			"byteLength":26688,
			"byteOffset":26688,
			"target":34962
		},
		{
			"buffer":0,
			"byteLength":17792,
			"byteOffset":53376,
			"target":34962
		},
		{
			"buffer":0,
			"byteLength":24576,
			"byteOffset":71168,
			"target":34963
		},
		{
			"buffer":0,
			"byteLength":2736,
			"byteOffset":95744,
			"target":34962
		},
		{
			"buffer":0,
			"byteLength":2736,
			"byteOffset":98480,
			"target":34962
		},
		{
			"buffer":0,
			"byteLength":1824,
			"byteOffset":101216,
			"target":34962
		},
		{
			"buffer":0,
			"byteLength":2304,
			"byteOffset":103040,
			"target":34963
		},
		{
			"buffer":0,
			"byteLength":2232,
			"byteOffset":105344,
			"target":34962
		},
		{
			"buffer":0,
			"byteLength":2232,
			"byteOffset":107576,
			"target":34962
		},
		{
			"buffer":0,
			"byteLength":1488,
			"byteOffset":109808,
			"target":34962
		},
		{
			"buffer":0,
			"byteLength":1920,
			"byteOffset":111296,
			"target":34963
		},
		{
			"buffer":0,
			"byteLength":12336,
			"byteOffset":113216,
			"target":34962
		},
		{
			"buffer":0,
			"byteLength":12336,
			"byteOffset":125552,
			"target":34962
		},
		{
			"buffer":0,
			"byteLength":8224,
			"byteOffset":137888,
			"target":34962
		},
		{
			"buffer":0,
			"byteLength":11520,
			"byteOffset":146112,
			"target":34963
		}
	],
	"samplers":[
		{
			"magFilter":9729,
			"minFilter":9987
		}
	],
	"buffers":[
		{
			"byteLength":157632,
			"uri":"fugu.bin"
		}
	]
}
